Coordinates
version=1
nRows=14
nColumns=36
inDegrees=yes

Units are S.I. units (second, meters, Newtons, ...)
If the header above contains a line with 'inDegrees', this indicates whether rotational values are in degrees (yes) or radians (no).

endheader
time	pelvis_tilt	pelvis_list	pelvis_rotation	pelvis_tx	pelvis_ty	pelvis_tz	hip_flexion_r	hip_adduction_r	hip_rotation_r	knee_angle_r	knee_angle_r_beta	ankle_angle_r	subtalar_angle_r	mtp_angle_r	hip_flexion_l	hip_adduction_l	hip_rotation_l	knee_angle_l	knee_angle_l_beta	ankle_angle_l	subtalar_angle_l	mtp_angle_l	lumbar_extension	lumbar_bending	lumbar_rotation	arm_flex_r	arm_add_r	arm_rot_r	elbow_flex_r	pro_sup_r	arm_flex_l	arm_add_l	arm_rot_l	elbow_flex_l	pro_sup_l
      1.01000000	     -3.18267614	     -0.67923334	     -0.28566970	      1.14422638	      0.94883436	     -0.21726874	     29.48428762	      0.80550696	     -1.23451951	     11.10339425	      0.19379079	      4.07861605	     -0.52841512	     -7.29891860	     -7.53371470	     -1.60620630	     -9.60540238	      6.41475202	      0.11195854	     17.11757809	      1.91693789	     -7.29891860	     -7.41270163	     -9.62694890	    -11.27764338	     -5.67318949	     -8.12760667	    -10.42156057	     49.79864154	    106.98776033	     16.58764045	    -12.66012582	      0.95660004	     47.58658123	    107.96643097
      1.02000000	     -3.43598786	     -0.54077055	     -0.34718147	      1.15511989	      0.94599771	     -0.21675883	     29.54673508	      0.54148842	     -0.36159747	      8.51434589	      0.14860337	      3.87632736	     -0.07252549	     -7.30339884	     -8.35997090	     -1.41081194	     -9.61649418	      5.78602482	      0.10098518	     17.36126854	      2.10501672	     -7.30339884	     -7.18142350	     -9.38296498	    -11.48519999	     -5.82326712	     -8.22705653	    -10.82181974	     49.71560104	    106.89349805	     17.06475704	    -13.02209724	      2.29755709	     48.48738301	    107.95966565
      1.03000000	     -3.67512888	     -0.43575034	     -0.41987199	      1.16606262	      0.94306423	     -0.21611327	     29.68091993	      0.30803474	      0.32166769	      6.49492625	      0.11335785	      3.76419179	      0.45228700	     -7.30685648	     -9.11301468	     -1.28042116	     -9.60028747	      5.35299736	      0.09342743	     17.64319140	      2.28231992	     -7.30685648	     -6.95163041	     -9.09059910	    -11.68302760	     -5.84802971	     -8.28903842	    -11.25128015	     49.52476899	    106.77687213	     17.50190607	    -13.31999350	      3.46348050	     49.33349275	    107.96246491
      1.04000000	     -3.94857288	     -0.40367383	     -0.41505362	      1.17717639	      0.94003146	     -0.21536501	     29.94696676	      0.12493357	      0.73147554	      5.15712165	      0.09000875	      3.77767392	      0.83518187	     -7.30888193	     -9.72929027	     -1.28060540	     -9.61215139	      5.11370016	      0.08925090	     17.90776697	      2.39337931	     -7.30888193	     -6.68694998	     -8.72633029	    -11.87744185	     -5.92391672	     -8.38981178	    -11.66122870	     49.19032434	    106.66145725	     17.93668904	    -13.50490388	      4.28918168	     50.06649059	    107.98676192
      1.05000000	     -4.07481205	     -0.42837980	     -0.40132216	      1.18832681	      0.93723245	     -0.21445714	     30.10225356	      0.03098960	      1.07729610	      4.42964419	      0.07731188	      3.66233483	      1.05671762	     -7.31139293	    -10.41027292	     -1.37633395	     -9.64402080	      5.06906268	      0.08847183	     18.24873416	      2.51567934	     -7.31139293	     -6.63760826	     -8.29155234	    -12.07128397	     -5.84714224	     -8.39795438	    -12.26524113	     48.72734683	    106.47973037	     18.38226534	    -13.80704398	      5.32575763	     50.80319216	    107.98617084
      1.06000000	     -4.18460454	     -0.52611003	     -0.31354481	      1.19961309	      0.93455758	     -0.21342012	     30.26260332	      0.01915832	      1.34703862	      4.28866693	      0.07485136	      3.38487885	      0.88739418	     -7.31527146	    -10.97346722	     -1.61742940	     -9.74743242	      5.26350399	      0.09186547	     18.62812273	      2.71698112	     -7.31527146	     -6.61937328	     -7.77895439	    -12.23111016	     -5.75950905	     -8.29364129	    -13.08670022	     48.20428257	    106.19332802	     18.87631961	    -14.02750885	      6.48112715	     51.35472569	    107.87053664
      1.07000000	     -4.29615524	     -0.75910273	     -0.24977106	      1.21118299	      0.93195242	     -0.21216246	     30.44822754	      0.20035718	      1.60028267	      4.69824535	      0.08199985	      3.06112168	      0.67243967	     -7.31685473	    -11.49068519	     -2.02694327	     -9.77488091	      5.62233871	      0.09812832	     18.77908173	      2.72348837	     -7.31685473	     -6.56937405	     -7.11565892	    -12.30953262	     -5.75091190	     -8.34548715	    -13.56658220	     47.67424129	    106.03768169	     19.28155881	    -13.98668651	      6.91850636	     51.77689209	    107.83682204
      1.08000000	     -4.34926450	     -1.06193325	     -0.14987846	      1.22287208	      0.92965759	     -0.21075147	     30.54577212	      0.48194691	      1.90583380	      5.48618729	      0.09575203	      2.53217137	      0.39277419	     -7.31790232	    -11.97856342	     -2.54598142	     -9.73126131	      6.14190592	      0.10719648	     18.83643577	      2.70933749	     -7.31790232	     -6.63454349	     -6.34852115	    -12.44778763	     -5.66249873	     -8.37680045	    -14.06412844	     47.09167087	    105.89921270	     19.62195111	    -13.99291520	      7.26685172	     52.13496940	    107.82853346
      1.09000000	     -4.41697187	     -1.42273071	     -0.01024867	      1.23477180	      0.92756810	     -0.20896060	     30.52302109	      0.92684475	      2.71827680	      6.27794471	      0.10957081	      0.51807610	     -2.25588701	     -7.32738733	    -12.23647745	     -3.24014786	    -10.17783740	      7.09794542	      0.12388252	     19.30990520	      3.13735913	     -7.32738733	     -6.61849967	     -5.58882201	    -12.32916502	     -5.62440392	     -8.00514513	    -15.68084802	     46.31316310	    105.26125242	     20.07765302	    -14.04493316	      8.40569020	     52.31550070	    107.35344608
      1.10000000	     -4.36568230	     -1.89251393	      0.17607504	      1.24690294	      0.92594398	     -0.20724890	     30.47952994	      1.41366691	      2.59076451	      7.51294915	      0.13112570	     -0.47940530	     -2.74951380	     -7.32952678	    -12.61430731	     -4.02680691	    -10.26156023	      8.03056140	      0.14015974	     19.15636470	      2.88022060	     -7.32952678	     -6.81204972	     -4.66011288	    -12.41196055	     -5.44102519	     -7.95838122	    -16.26445458	     45.40694724	    105.07480838	     20.30041776	    -13.91205713	      8.60820726	     52.60376536	    107.29971785
      1.11000000	     -4.26644840	     -2.39869773	      0.34148344	      1.25924798	      0.92471859	     -0.20528978	     30.33697079	      1.98782246	      2.54242827	      8.77612343	      0.15317225	     -1.47679875	     -3.23559053	     -7.33082982	    -12.97261864	     -4.86741523	    -10.21718897	      9.11539301	      0.15909362	     18.86225072	      2.61591889	     -7.33082982	     -7.06353218	     -3.68807869	    -12.40420126	     -5.30294357	     -7.89322943	    -16.81640261	     44.53318900	    104.92751395	     20.44808168	    -13.72053737	      8.72484779	     52.83914185	    107.28497507
      1.12000000	     -4.11493351	     -2.96013058	      0.56650383	      1.27185754	      0.92388672	     -0.20317081	     30.09587711	      2.61802578	      2.17123166	      9.98098046	      0.17420097	     -2.68606001	     -3.98697093	     -7.33228159	    -13.20889984	     -5.82698642	    -10.25178194	     10.53158336	      0.18381081	     18.42386976	      2.14614884	     -7.33228159	     -7.30750762	     -2.69625978	    -12.37633898	     -5.09215807	     -7.75402025	    -17.57226314	     43.43842438	    104.75001680	     20.52184304	    -13.49844862	      8.79832485	     53.01576828	    107.27153646
      1.13000000	     -4.03956954	     -3.53377995	      0.76896591	      1.28456623	      0.92335722	     -0.20074322	     29.77987768	      3.37019139	      2.31566980	     10.83223345	      0.18905814	     -4.92201662	     -6.39864703	     -7.34138800	    -13.24624728	     -6.77764516	     -9.83469079	     12.13445358	      0.21178617	     17.62423177	      1.01510952	     -7.34138800	     -7.43255976	     -1.68846000	    -12.32062112	     -4.84044928	     -7.38772455	    -19.00381858	     42.32720786	    104.42382065	     20.43207906	    -13.26034311	      8.78434645	     53.05165444	    107.16747611
      1.14000000	     -3.80279240	     -4.11587950	      0.98024616	      1.29748282	      0.92334147	     -0.19829008	     29.38342053	      4.05294349	      1.64973576	     11.94304555	      0.20844547	     -5.49253737	     -6.78421648	     -7.34344741	    -13.27402823	     -7.79206053	     -9.66186095	     14.05987447	      0.24539110	     16.76657026	      0.28103193	     -7.34344741	     -7.76504539	     -0.68527537	    -12.17169928	     -4.65351828	     -7.26024203	    -19.60739152	     41.18154463	    104.28526307	     20.39818834	    -12.96631431	      8.79941585	     53.05440826	    107.16709683
